<svg viewBox="32.38 28.46 792 203.69" id="b" xmlns="http://www.w3.org/2000/svg"><g id="c"><path fill="#0b2341" d="m665.645,36.56l54.056,135.532c2.611,6.267,3.395,12.012-.522,18.019-4.178,6.267-10.707,9.662-21.675,9.662h-15.407c-2.611,0-3.656,1.306-3.656,3.656v25.069c0,2.35,1.045,3.656,3.656,3.656h14.363c32.12,0,52.75-13.84,65.024-43.61l62.412-151.983c.783-1.828,1.045-4.178-2.611-4.178h-36.298c-2.089,0-3.656,1.045-4.439,3.134l-32.381,95.316c-1.567,4.701-5.223,4.701-6.79,0l-32.381-95.316c-.783-2.089-2.35-3.134-4.439-3.134h-35.776c-2.873,0-4.178,1.828-3.134,4.178Zm-110.462,52.228c3.395-16.713,16.191-31.859,34.209-31.859,18.28,0,30.553,15.407,33.687,31.859.783,3.134-1.045,4.962-4.178,4.962h-59.279c-3.134,0-5.223-1.828-4.439-4.962Zm-44.133,18.802c0,45.961,33.426,79.125,79.648,79.125,31.859,0,63.196-15.668,71.552-43.349.783-1.828.522-3.917-3.134-3.917h-35.515c-2.35,0-3.656.783-4.701,3.134-4.701,9.401-15.146,15.407-27.159,15.407-18.28,0-32.904-13.84-36.56-30.553-.783-3.134,1.306-4.962,4.439-4.962h101.322c2.611,0,3.917-1.306,3.917-3.917v-9.923c0-45.438-31.337-80.17-75.992-80.17-44.916,0-77.82,33.948-77.82,79.125Zm-133.181,71.291c0,2.611,1.045,3.917,3.656,3.917h118.296c2.35,0,3.656-1.306,3.656-3.917v-24.808c0-2.35-1.306-3.656-3.656-3.656h-62.151c-3.917,0-5.223-2.611-2.873-5.745l64.763-85.393c1.306-1.828,1.567-3.134,1.567-5.223v-17.758c0-2.611-1.045-3.917-3.656-3.917h-115.946c-2.611,0-3.656,1.306-3.656,3.917v25.069c0,2.35,1.045,3.656,3.656,3.656h60.846c3.917,0,5.223,2.611,2.873,5.745l-65.807,85.132c-1.306,1.567-1.567,3.134-1.567,5.223v17.758Zm-131.092-71.291c0-29.509,16.452-50.4,40.216-50.4,24.547,0,40.999,22.458,40.999,50.4,0,27.42-15.407,50.4-40.999,50.4-24.547,0-40.216-21.936-40.216-50.4Zm-41.521,0c0,46.744,34.47,79.125,81.737,79.125,47.789,0,82.259-33.165,82.259-79.125,0-45.438-34.732-79.125-82.259-79.125-45.961,0-81.737,31.859-81.737,79.125Zm-172.875,0c0,45.961,34.47,79.125,80.431,79.125,36.298,0,69.724-19.847,77.82-55.623.783-2.873-.261-4.178-3.395-4.178h-35.254c-2.089,0-3.656,1.045-4.178,3.395-4.962,17.235-17.496,27.681-33.948,27.681-24.286,0-39.693-22.197-39.693-50.4,0-27.42,15.146-50.4,39.171-50.4,16.191,0,28.987,10.184,34.209,27.159.783,2.611,2.35,3.917,4.439,3.917h35.515c2.611,0,3.656-1.828,3.134-4.178-7.834-35.254-39.954-55.623-77.036-55.623-46.483,0-81.214,33.165-81.214,79.125Z"></path><rect fill="none" height="264.535" width="856.763"></rect></g></svg>